<svg width="26" height="26" viewBox="0 0 26 26" fill="none" xmlns="http://www.w3.org/2000/svg">
<g clip-path="url(#clip0_209_1667)">
<path d="M7.38696 7.34668H6.33166C5.7719 7.34668 5.23506 7.56783 4.83925 7.96149C4.44343 8.35515 4.22107 8.88906 4.22107 9.44578V18.8917C4.22107 19.4484 4.44343 19.9824 4.83925 20.376C5.23506 20.7697 5.7719 20.9908 6.33166 20.9908H15.8293C16.3891 20.9908 16.9259 20.7697 17.3217 20.376C17.7175 19.9824 17.9399 19.4484 17.9399 18.8917V17.8422" stroke="#4F4444" stroke-width="2" stroke-linecap="round" stroke-linejoin="round"/>
<path d="M21.5121 6.91119C21.9277 6.49782 22.1612 5.93719 22.1612 5.3526C22.1612 4.76802 21.9277 4.20738 21.5121 3.79402C21.0964 3.38066 20.5327 3.14844 19.945 3.14844C19.3572 3.14844 18.7935 3.38066 18.3778 3.79402L9.49753 12.5945V15.7431H12.6634L21.5121 6.91119V6.91119Z" stroke="#4F4444" stroke-width="2" stroke-linecap="round" stroke-linejoin="round"/>
<path d="M16.8846 5.24756L20.0505 8.39621" stroke="#4F4444" stroke-width="2" stroke-linecap="round" stroke-linejoin="round"/>
</g>
<defs>
<clipPath id="clip0_209_1667">
<rect width="25.3271" height="25.1892" fill="white"/>
</clipPath>
</defs>
</svg>
