<svg width="17" height="17" viewBox="0 0 17 17" fill="none" xmlns="http://www.w3.org/2000/svg">
<path d="M13.8125 6.375C14.2986 6.37506 14.7701 6.20845 15.1482 5.90295C15.5263 5.59745 15.7883 5.17155 15.8904 4.69627C15.9925 4.22099 15.9285 3.72508 15.7092 3.29125C15.4899 2.85743 15.1284 2.51191 14.6852 2.31234C14.2419 2.11277 13.7436 2.0712 13.2734 2.19459C12.8032 2.31797 12.3895 2.59883 12.1014 2.99033C11.8132 3.38183 11.668 3.8603 11.6899 4.34592C11.7119 4.83154 11.8996 5.29496 12.2219 5.65888L10.5878 7.701C10.1982 7.48621 9.75103 7.39911 9.3093 7.45199C8.86758 7.50486 8.45358 7.69504 8.12568 7.99571C7.79779 8.29638 7.57253 8.69238 7.48165 9.12788C7.39078 9.56338 7.43889 10.0164 7.61919 10.4231L4.95231 11.5664C4.66468 11.1366 4.23023 10.8265 3.73036 10.6942C3.23048 10.5618 2.69949 10.6162 2.23688 10.8473C1.77426 11.0783 1.41177 11.4701 1.21733 11.9493C1.02288 12.4285 1.00983 12.9621 1.18061 13.4502C1.35139 13.9383 1.69428 14.3473 2.14504 14.6007C2.5958 14.8541 3.1235 14.9345 3.62925 14.8267C4.135 14.7189 4.5841 14.4304 4.8924 14.0153C5.20069 13.6001 5.34704 13.0868 5.304 12.5715L8.31406 11.2816C8.7134 11.5724 9.20158 11.715 9.69464 11.6848C10.1877 11.6547 10.6549 11.4537 11.0158 11.1164C11.3767 10.7791 11.6089 10.3266 11.6723 9.8367C11.7358 9.3468 11.6265 8.8501 11.3634 8.432L13.1059 6.25388C13.3284 6.3325 13.5639 6.37359 13.8125 6.375ZM13.8125 5.31144C13.5307 5.31144 13.2605 5.1995 13.0612 5.00024C12.8619 4.80098 12.75 4.53073 12.75 4.24894C12.75 3.96715 12.8619 3.6969 13.0612 3.49764C13.2605 3.29838 13.5307 3.18644 13.8125 3.18644C14.0943 3.18644 14.3645 3.29838 14.5638 3.49764C14.7631 3.6969 14.875 3.96715 14.875 4.24894C14.875 4.53073 14.7631 4.80098 14.5638 5.00024C14.3645 5.1995 14.0943 5.31144 13.8125 5.31144ZM4.25 12.7489C4.25 13.0307 4.13806 13.301 3.9388 13.5002C3.73954 13.6995 3.46929 13.8114 3.1875 13.8114C2.90571 13.8114 2.63546 13.6995 2.4362 13.5002C2.23694 13.301 2.125 13.0307 2.125 12.7489C2.125 12.4671 2.23694 12.1969 2.4362 11.9976C2.63546 11.7984 2.90571 11.6864 3.1875 11.6864C3.46929 11.6864 3.73954 11.7984 3.9388 11.9976C4.13806 12.1969 4.25 12.4671 4.25 12.7489ZM10.625 9.56144C10.625 9.84323 10.5131 10.1135 10.3138 10.3127C10.1145 10.512 9.84429 10.6239 9.5625 10.6239C9.28071 10.6239 9.01046 10.512 8.8112 10.3127C8.61194 10.1135 8.5 9.84323 8.5 9.56144C8.5 9.27965 8.61194 9.0094 8.8112 8.81014C9.01046 8.61088 9.28071 8.49894 9.5625 8.49894C9.84429 8.49894 10.1145 8.61088 10.3138 8.81014C10.5131 9.0094 10.625 9.27965 10.625 9.56144Z" fill="white"/>
</svg>
