<svg width="16" height="16" viewBox="0 0 16 16" fill="none" xmlns="http://www.w3.org/2000/svg">
<path fill-rule="evenodd" clip-rule="evenodd" d="M4.00003 4.66664L4.00006 5.99996L2.66669 5.99999V12H6.82406L7.33334 12.2543V9.14093L7.66663 9.32596L7.99997 9.51064L8.33331 9.32596L8.66666 9.14089V12.2543L9.17597 12H13.3333V5.99999L12 5.99996L11.9999 4.66664H14.6667V13.3333H9.49L8 14.0787L6.50937 13.3333H1.33334V4.66664H4.00003ZM12.6667 9.99999V11H9.33334V9.99999H12.6667ZM6.66669 9.99999V11H3.33334V9.99999H6.66669ZM12.6667 7.99999V8.99999H9.33334V8.77077L10.7218 7.99996L12.6667 7.99999ZM5.27825 7.99996L6.66666 8.77077V8.99999H3.33337V7.99999L5.27825 7.99996ZM8 1.29999L11.3333 3.15186V6.85561L8 8.70755L4.66669 6.85568V3.15186L8 1.29999ZM6.66669 4.6553V7.20399L7.33334 7.57465V5.02599L6.66669 4.6553ZM5.33334 3.91468V6.46333L6 6.83399V4.28533L5.33334 3.91468ZM9.35734 2.81664L7.02203 4.08999L7.65669 4.44264L9.97 3.15664L9.35734 2.81664ZM8 2.06264L5.68669 3.34799L6.332 3.70664L8.66734 2.43333L8 2.06264Z" fill="white"/>
</svg>
